<svg width="76" height="76" viewBox="0 0 76 76" fill="none" xmlns="http://www.w3.org/2000/svg">
<rect width="76" height="76" rx="8" fill="#0E33CB"/>
<path d="M45.5 33.6667L30.5 25.0167" stroke="white" stroke-width="2" stroke-linecap="round" stroke-linejoin="round"/>
<path d="M53 44.6666V31.3333C52.9994 30.7488 52.8451 30.1747 52.5526 29.6686C52.26 29.1625 51.8396 28.7423 51.3333 28.45L39.6667 21.7833C39.1599 21.4908 38.5851 21.3367 38 21.3367C37.4149 21.3367 36.8401 21.4908 36.3333 21.7833L24.6667 28.45C24.1604 28.7423 23.74 29.1625 23.4474 29.6686C23.1549 30.1747 23.0006 30.7488 23 31.3333V44.6666C23.0006 45.2512 23.1549 45.8253 23.4474 46.3314C23.74 46.8375 24.1604 47.2577 24.6667 47.55L36.3333 54.2166C36.8401 54.5092 37.4149 54.6632 38 54.6632C38.5851 54.6632 39.1599 54.5092 39.6667 54.2166L51.3333 47.55C51.8396 47.2577 52.26 46.8375 52.5526 46.3314C52.8451 45.8253 52.9994 45.2512 53 44.6666Z" stroke="white" stroke-width="2" stroke-linecap="round" stroke-linejoin="round"/>
<path d="M23.45 29.6L38 38.0166L52.55 29.6" stroke="white" stroke-width="2" stroke-linecap="round" stroke-linejoin="round"/>
<path d="M38 54.8V38" stroke="white" stroke-width="2" stroke-linecap="round" stroke-linejoin="round"/>
</svg>
