<svg width="132" height="132" viewBox="0 0 132 132" fill="none" xmlns="http://www.w3.org/2000/svg">
<rect width="132" height="132" rx="8" fill="#0E33CB"/>
<path d="M92.7615 42V52.0493H86.9979C82.4659 52.0493 80.1999 54.3153 80.1999 58.8473V63.5764H82.7122C86.6531 63.5764 89.9043 64.7586 92.4659 67.1232C95.126 69.4877 96.4561 72.4926 96.4561 76.1379C96.4561 80.0788 95.126 83.2808 92.4659 85.7438C89.9043 88.2069 86.6531 89.4384 82.7122 89.4384C78.6728 89.4384 75.3723 88.2069 72.8107 85.7438C70.2492 83.1823 68.9684 79.7833 68.9684 75.5468V58.5517C68.9684 47.5172 74.4856 42 85.5201 42H92.7615ZM60.2492 42V52.0493H54.4856C49.9536 52.0493 47.6876 54.3153 47.6876 58.8473V63.5764H50.1999C54.1408 63.5764 57.392 64.7586 59.9536 67.1232C62.6137 69.4877 63.9437 72.4926 63.9437 76.1379C63.9437 80.0788 62.6137 83.2808 59.9536 85.7438C57.392 88.2069 54.1408 89.4384 50.1999 89.4384C46.1605 89.4384 42.86 88.2069 40.2984 85.7438C37.7368 83.1823 36.4561 79.7833 36.4561 75.5468V58.5517C36.4561 47.5172 41.9733 42 53.0078 42H60.2492Z" fill="white"/>
</svg>
